<svg xmlns="http://www.w3.org/2000/svg" width="1600" height="1100" viewBox="0 0 1600 1100">
  <defs><linearGradient id="g" x1="0" y1="0" x2="1" y2="1"><stop stop-color="#04130f"/><stop offset=".55" stop-color="#0f6b42"/><stop offset="1" stop-color="#334a3f"/></linearGradient></defs>
  <rect width="1600" height="1100" fill="url(#g)"/><rect x="1015" y="175" width="320" height="420" rx="18" fill="#fff" opacity=".12"/><path d="M1080 250 h70 M1080 325 h170 M1080 400 h170 M1080 475 h170" stroke="#f5b84b" stroke-width="18" opacity=".55"/><path d="M0 805 C330 690 610 890 910 760 C1135 664 1360 720 1600 640 L1600 1100 L0 1100Z" fill="#020b08" opacity=".82"/>
  <rect x="210" y="430" width="1120" height="282" rx="48" fill="#fff5e2"/><rect x="285" y="482" width="650" height="90" rx="18" fill="#0c2d26"/><rect x="975" y="482" width="240" height="90" rx="18" fill="#0c2d26"/><path d="M1215 430 L1370 582 L1370 712 L1288 712 L1288 430Z" fill="#fff5e2"/><circle cx="430" cy="735" r="78" fill="#09110f"/><circle cx="1125" cy="735" r="78" fill="#09110f"/><path d="M285 625 C515 555 700 738 960 620 C1092 560 1215 565 1320 615" fill="none" stroke="#e85d19" stroke-width="34" stroke-linecap="round"/><text x="210" y="250" fill="#fff" font-family="Arial, sans-serif" font-size="82" font-weight="900">Employee Transport</text><text x="215" y="330" fill="#f5b84b" font-family="Arial, sans-serif" font-size="36" font-weight="800">Daily staff routes with discipline</text>
</svg>
