<svg xmlns="http://www.w3.org/2000/svg" width="1600" height="1100" viewBox="0 0 1600 1100">
  <defs><linearGradient id="g" x1="0" y1="0" x2="1" y2="1"><stop stop-color="#071914"/><stop offset=".52" stop-color="#7b4b14"/><stop offset="1" stop-color="#f5b84b"/></linearGradient></defs>
  <rect width="1600" height="1100" fill="url(#g)"/><circle cx="1240" cy="210" r="245" fill="#fff3c4" opacity=".18"/><path d="M1070 530 h250 l-125 -160z" fill="#fff" opacity=".16"/><path d="M0 805 C310 670 590 895 900 760 C1140 654 1350 700 1600 610 L1600 1100 L0 1100Z" fill="#04130f" opacity=".8"/>
  <rect x="205" y="430" width="1120" height="284" rx="48" fill="#fff8e9"/><rect x="280" y="482" width="650" height="90" rx="18" fill="#173527"/><rect x="970" y="482" width="240" height="90" rx="18" fill="#173527"/><path d="M1210 430 L1368 582 L1368 714 L1285 714 L1285 430Z" fill="#fff8e9"/><circle cx="430" cy="735" r="78" fill="#0b120f"/><circle cx="1125" cy="735" r="78" fill="#0b120f"/><path d="M280 630 C500 560 710 742 970 618 C1100 556 1218 562 1320 608" fill="none" stroke="#e85d19" stroke-width="34" stroke-linecap="round"/><text x="205" y="250" fill="#fff" font-family="Arial, sans-serif" font-size="88" font-weight="900">Pilgrimage Tours</text><text x="210" y="330" fill="#f5b84b" font-family="Arial, sans-serif" font-size="36" font-weight="800">Comfort for sacred journeys</text>
</svg>
