<svg xmlns="http://www.w3.org/2000/svg" width="1600" height="1100" viewBox="0 0 1600 1100">
  <defs><linearGradient id="g" x1="0" y1="0" x2="1" y2="1"><stop stop-color="#103d2b"/><stop offset=".55" stop-color="#f5b84b"/><stop offset="1" stop-color="#e85d19"/></linearGradient></defs>
  <rect width="1600" height="1100" fill="url(#g)"/><rect x="120" y="145" width="520" height="360" rx="26" fill="#fff4d8" opacity=".18"/><path d="M0 805 C325 690 590 898 890 765 C1145 652 1332 715 1600 640 L1600 1100 L0 1100Z" fill="#04130f" opacity=".8"/>
  <rect x="185" y="430" width="1180" height="292" rx="50" fill="#fff7e6"/><rect x="260" y="480" width="680" height="92" rx="18" fill="#123a31"/><rect x="980" y="480" width="250" height="92" rx="18" fill="#123a31"/><path d="M1228 430 L1388 586 L1388 722 L1305 722 L1305 430Z" fill="#fff7e6"/><circle cx="420" cy="740" r="82" fill="#07120e"/><circle cx="1140" cy="740" r="82" fill="#07120e"/><path d="M260 632 H1285" stroke="#e85d19" stroke-width="36" stroke-linecap="round"/><text x="185" y="250" fill="#061a14" font-family="Arial, sans-serif" font-size="84" font-weight="900">School Transportation</text><text x="190" y="330" fill="#fff" font-family="Arial, sans-serif" font-size="36" font-weight="800">Safe, punctual, supervised routes</text>
</svg>
