<svg xmlns="http://www.w3.org/2000/svg" width="1600" height="1100" viewBox="0 0 1600 1100">
  <defs><linearGradient id="g" x1="0" y1="0" x2="1" y2="1"><stop stop-color="#071914"/><stop offset=".5" stop-color="#195b42"/><stop offset="1" stop-color="#f5b84b"/></linearGradient></defs>
  <rect width="1600" height="1100" fill="url(#g)"/><path d="M1010 390 C1085 250 1210 198 1385 168 C1290 308 1200 392 1010 390Z" fill="#fff" opacity=".15"/><path d="M0 820 C340 700 570 906 900 770 C1130 675 1365 710 1600 640 L1600 1100 L0 1100Z" fill="#02100c" opacity=".78"/>
  <rect x="205" y="435" width="1125" height="276" rx="48" fill="#fff6e5"/><rect x="282" y="486" width="648" height="88" rx="18" fill="#10362d"/><rect x="972" y="486" width="242" height="88" rx="18" fill="#10362d"/><path d="M1214 435 L1370 585 L1370 711 L1288 711 L1288 435Z" fill="#fff6e5"/><circle cx="430" cy="733" r="78" fill="#0a120f"/><circle cx="1125" cy="733" r="78" fill="#0a120f"/><path d="M282 625 H1295" stroke="#e85d19" stroke-width="34" stroke-linecap="round"/><text x="205" y="250" fill="#fff" font-family="Arial, sans-serif" font-size="88" font-weight="900">Tour Packages</text><text x="210" y="330" fill="#f5b84b" font-family="Arial, sans-serif" font-size="36" font-weight="800">Curated routes across India</text>
</svg>
